<svg viewBox="0 0 36 36" xmlns="http://www.w3.org/2000/svg" aria-hidden="true">
                                                                    <path class="cls-1" d="M10.96,15.99c0,1.21.45,2.31,1.17,3.18.2-.7.64-1.3,1.24-1.68-.26-.44-.41-.95-.41-1.49,0-1.65,1.35-3,3-3,.55,0,1.06.16,1.51.42.38-.6.96-1.05,1.65-1.27-.86-.71-1.95-1.15-3.16-1.15-2.76,0-5,2.24-5,5Z">
                                                                    </path>
                                                                    <path class="cls-1" d="M12,24c0-.52.14-1,.37-1.42-2.33-1.27-3.91-3.75-3.91-6.58,0-4.14,3.36-7.5,7.5-7.5,2.83,0,5.3,1.58,6.58,3.9.43-.25.93-.39,1.47-.39.21,0,.4.02.6.06-1.37-2.99-4.24-5.16-7.64-5.52v-3.55c0-.55-.45-1-1-1s-1,.45-1,1v3.55c-4.44.47-7.99,4.01-8.45,8.46h-3.56c-.55,0-1,.45-1,1s.45,1,1,1h3.57c.36,3.42,2.55,6.29,5.57,7.65-.05-.21-.08-.43-.08-.66Z">
                                                                    </path>
                                                                    <path class="cls-1" d="M33,25c.55,0,1-.45,1-1s-.45-1-1-1h-2v-2h2c.55,0,1-.45,1-1s-.45-1-1-1h-2v-1c0-.55-.45-1-1-1h-1v-2c0-.55-.45-1-1-1s-1,.45-1,1v2h-2v-2c0-.55-.45-1-1-1s-1,.45-1,1v2h-2v-2c0-.55-.45-1-1-1s-1,.45-1,1v2h-1c-.55,0-1,.45-1,1v1h-2c-.55,0-1,.45-1,1s.45,1,1,1h2v2h-2c-.55,0-1,.45-1,1s.45,1,1,1h2v2h-2c-.55,0-1,.45-1,1s.45,1,1,1h2v1c0,.55.45,1,1,1h1v2c0,.55.45,1,1,1s1-.45,1-1v-2h2v2c0,.55.45,1,1,1s1-.45,1-1v-2h2v2c0,.55.45,1,1,1s1-.45,1-1v-2h1c.55,0,1-.45,1-1v-1h2c.55,0,1-.45,1-1s-.45-1-1-1h-2v-2h2ZM29,29h-10v-10h10v10Z">
                                                                    </path>
                                                                    <path class="cls-1" d="M26,26.75h-4c-.41,0-.75-.34-.75-.75v-4c0-.41.34-.75.75-.75h4c.41,0,.75.34.75.75v4c0,.41-.34.75-.75.75ZM22.75,25.25h2.5v-2.5h-2.5v2.5Z">
                                                                    </path>
                                                                </svg>