<svg viewBox="0 0 36 36" xmlns="http://www.w3.org/2000/svg" aria-hidden="true">
                                                                    <path class="cls-1" d="M12.99,15.98c0-1.65,1.35-3,3-3,.84,0,1.6.35,2.14.91l1.41-1.41c-.91-.92-2.17-1.49-3.56-1.49-2.76,0-5,2.24-5,5,0,1.39.57,2.65,1.49,3.56l1.41-1.41c-.56-.55-.91-1.3-.91-2.14Z">
                                                                    </path>
                                                                    <path class="cls-1" d="M9.47,22.87c.15-.36.37-.7.66-.98l.59-.59c-1.37-1.36-2.23-3.24-2.23-5.32,0-4.14,3.36-7.5,7.5-7.5,2.08,0,3.96.85,5.32,2.23l.57-.57c.29-.29.63-.51,1-.66-1.52-1.61-3.58-2.69-5.9-2.94v-3.55c0-.55-.45-1-1-1s-1,.45-1,1v3.55c-4.44.47-7.99,4.01-8.45,8.46h-3.56c-.55,0-1,.45-1,1s.45,1,1,1h3.57c.25,2.31,1.33,4.37,2.93,5.88Z">
                                                                    </path>
                                                                    <path class="cls-1" d="M34,12.25c0-.55-.45-1-1-1h-8.99c-.27,0-.52.1-.71.29l-11.76,11.76c-.39.39-.39,1.02,0,1.41l8.99,8.99c.2.2.45.29.71.29s.51-.1.71-.29l11.76-11.76c.19-.19.29-.44.29-.71v-8.99ZM21.24,31.59l-7.58-7.58,10.76-10.76h7.58s0,7.58,0,7.58l-10.76,10.76Z">
                                                                    </path>
                                                                    <path class="cls-1" d="M27,20.75c-1.52,0-2.75-1.23-2.75-2.75s1.23-2.75,2.75-2.75,2.75,1.23,2.75,2.75-1.23,2.75-2.75,2.75ZM27,16.75c-.69,0-1.25.56-1.25,1.25s.56,1.25,1.25,1.25,1.25-.56,1.25-1.25-.56-1.25-1.25-1.25Z">
                                                                    </path>
                                                                </svg>