<svg version="1.1" id="Layer_1" xmlns="http://www.w3.org/2000/svg" xmlns:xlink="http://www.w3.org/1999/xlink" x="0px" y="0px" viewBox="0 0 50 50" style="enable-background:new 0 0 50 50;" xml:space="preserve">
                                                                        <path fill="#A0A1A2" d="M4,42.4C4,43.2,4.7,44,5.5,44h38.9c0.8,0,1.6-0.7,1.6-1.6V14.6H4V42.4z">
                                                                        </path>
                                                                        <path fill="#7A7A7A" d="M44.4,8H5.5C4.7,8,4,8.7,4,9.6v5h42v-5c0-0.8-0.7-1.3-1.6-1.3">
                                                                        </path>
                                                                        <rect x="7.4" y="25.9" fill="#B8D432" width="35.3" height="5.9"></rect>
                                                                        <rect x="7.4" y="17.1" fill="#FFFFFF" width="35.3" height="5.9"></rect>
                                                                        <rect x="7.4" y="34.8" fill="#B8D432" width="35.3" height="5.9"></rect>
                                                                        <path fill="#FFFFFF" fill-opacity="0.2" d="M5.7,7.9C4.8,7.9,4,8.6,4,9.6v6.1v2.8V42c0,0.9,0.8,1.7,1.7,1.7h1.8L40.6,7.9H5.7z">
                                                                        </path>
                                                                    </svg>