<svg version="1.1" id="Layer_1" xmlns="http://www.w3.org/2000/svg" xmlns:xlink="http://www.w3.org/1999/xlink" x="0px" y="0px" viewBox="0 0 50 50" style="enable-background:new 0 0 50 50;" xml:space="preserve">
                                                                                    <g>
                                                                                        <path fill="#0072C6" d="M25,0c13.8,0,25,11.2,25,25c0,13.8-11.2,25-25,25C11.2,50,0,38.8,0,25C0,11.2,11.2,0,25,0">
                                                                                        </path>
                                                                                        <path fill="#FFFFFF" d="M1.7,34c1.2,3.2,3.1,6.1,5.7,8.7l0,0C4.9,40.2,2.9,37.3,1.7,34 M0,24.1c0,0.7,0,1.3,0,2c0-0.3,0-0.7,0-1
        C0,24.7,0,24.4,0,24.1 M6.7,8c-2.1,2.2-3.7,4.8-4.8,7.5C3,12.7,4.7,10.2,6.7,8 M35.8,2.4c1.8,0.9,3.5,1.9,5,3.2
        C39.2,4.4,37.6,3.3,35.8,2.4 M14.7,2.2c-2.4,1.1-4.6,2.5-6.6,4.4C10.1,4.8,12.3,3.3,14.7,2.2"></path>
                                                                                        <path fill="#338ED1" d="M36.3,13.7c-0.3,0.1-0.6,0.2-0.9,0.2c0,0.2,0.1,0.3,0.1,0.5L36.3,13.7 M9.4,12L9.4,12
        C6.6,15.3,5,19.4,4.8,23.6h2.3v2.7H4.8C5,30.5,6.6,34.7,9.4,38c0.2-0.1,0.5-0.2,0.6-0.2c0.3-0.1,0.6-0.3,0.9-0.4
        c0.1-0.1,0.3-0.1,0.4-0.2c0.7-0.3,1.5-0.5,2.2-0.7l0.9-0.9c-0.2-0.9-0.4-1.8-0.6-2.8h2.8c0,0.2,0.1,0.4,0.1,0.5l16.6-16.6
        c-0.2-0.8-0.3-1.6-0.5-2.3c-2.4,0.4-5,0.6-7.6,0.6c-2.7,0-5.3-0.3-7.8-0.7c-0.2,0.7-0.4,1.7-0.6,2.5H14c0.2-1,0.4-2,0.6-3
        c-1.2-0.3-2.3-0.6-3.3-1c-0.1,0-0.2-0.1-0.3-0.1c-0.4-0.2-0.6-0.3-1-0.5C9.8,12.2,9.5,12.1,9.4,12 M18.3,5.9c-2.6,0.8-4.9,2.3-7,4
        c0.2,0.1,0.3,0.1,0.4,0.2c0.2,0.1,0.3,0.1,0.5,0.2c0.4,0.2,0.8,0.4,1.2,0.6c0.1,0,0.2,0.1,0.3,0.1c0.5,0.2,1,0.3,1.6,0.5
        c0.1,0,0.1,0,0.2,0C16.2,9.2,17.2,7.3,18.3,5.9 M31.4,5.8c1.2,1.5,2.2,3.4,3,5.6c0.1,0,0.3-0.1,0.4-0.1c0.6-0.2,1-0.3,1.6-0.5
        c0.1,0,0.2-0.1,0.3-0.1c0.5-0.2,0.9-0.3,1.3-0.5c0.1,0,0.3-0.1,0.5-0.2c0.1,0,0.2-0.1,0.3-0.1C36.6,8.1,34.1,6.6,31.4,5.8
         M24.9,4.7L24.9,4.7c-2.6,0.1-5.2,2.8-6.9,7.3c2.2,0.4,4.6,0.6,7,0.6c2.4,0,4.7-0.2,6.8-0.6C30,7.3,27.4,4.7,24.9,4.7 M25,0
        c-3.5,0-7,0.7-10.3,2.2c-2.4,1.1-4.7,2.6-6.6,4.4C7.9,6.8,7.6,7.1,7.3,7.3C7.1,7.5,6.9,7.8,6.7,8c-2,2.2-3.6,4.7-4.8,7.5
        c-1.1,2.7-1.7,5.7-1.9,8.6c0,0.3,0,0.6,0,0.9c0,0.3,0,0.7,0,1c0.1,2.7,0.7,5.4,1.6,8c1.3,3.3,3.2,6.2,5.7,8.7l1.5-1.5c0,0,0,0,0,0
        l-1.5-1.6c-0.1-0.1-0.1-0.2-0.2-0.3L7,39.2c-3.2-4-5-9-5-14.2c0-5.2,1.7-10.2,4.9-14.3l0.2-0.1c0.1-0.1,0.1-0.2,0.2-0.3l1.6-1.7
        c4.3-4.3,9.9-6.6,16-6.7h0.1C25,2,25,2,25,2c6.2,0,11.9,2.4,16.2,6.8l0,0l1.5-1.5c-0.6-0.6-1.2-1.2-1.9-1.7c-1.5-1.3-3.2-2.3-5-3.2
        C32.4,0.8,28.7,0,25,0"></path>
                                                                                        <path fill="#CCE3F4" d="M35.5,14.5l-2.3,2.3c0,0.1,0,0.2,0,0.2H36C35.9,16.2,35.7,15.3,35.5,14.5 M18.3,44.2c-2.6-0.9-5-2.4-7-4.2
        c0.1,0,0.2-0.1,0.3-0.1c0.2-0.1,0.3-0.1,0.5-0.2c0.4-0.2,0.8-0.3,1.3-0.5c0.1,0,0.2-0.1,0.3-0.1c0.6-0.2,1-0.3,1.6-0.5
        c0.1,0,0.1,0,0.2,0C16.2,40.8,17.2,42.8,18.3,44.2 M31.4,44.2c1.2-1.5,2.2-3.4,3-5.6c0.1,0,0.3,0.1,0.4,0.1
        c0.6,0.2,1.1,0.3,1.6,0.5c0.1,0,0.2,0.1,0.3,0.1c0.5,0.2,0.8,0.3,1.3,0.5c0.2,0.1,0.3,0.1,0.5,0.2c0.1,0,0.2,0.1,0.4,0.2
        C36.6,41.9,34.1,43.4,31.4,44.2 M24.8,45.3c-2.5-0.1-5.1-2.7-6.8-7.2c2.2-0.4,4.6-0.6,7-0.6c2.4,0,4.6,0.2,6.8,0.6
        C30.1,42.7,27.4,45.3,24.8,45.3L24.8,45.3 M41.2,8.8l-4.9,4.9c0.9-0.2,1.7-0.5,2.5-0.9c0.1,0,0.3-0.1,0.4-0.1
        c0.4-0.1,0.6-0.3,1-0.4c0.2-0.1,0.5-0.2,0.6-0.3c2.7,3.3,4.3,7.4,4.6,11.6h-2.8v2.7h2.8c-0.5,4.1-2,8.3-4.7,11.5
        c-0.3,0-0.5-0.1-0.7-0.2c-0.3-0.1-0.6-0.3-0.9-0.4c-0.1,0-0.2-0.1-0.3-0.1c-1.1-0.5-2.3-0.7-3.5-1.1c0.3-1.1,0.6-2.2,0.7-3.3h-2.8
        c-0.2,1-0.4,1.9-0.6,2.8c-2.4-0.5-5-0.6-7.6-0.6c-2.8,0-5.3,0.3-7.8,0.7c-0.2-0.8-0.4-1.5-0.5-2.3l-2.3,2.3c0,0.2,0.1,0.4,0.1,0.6
        c-0.3,0.1-0.7,0.2-1,0.3l-4.7,4.7c4.3,4.3,9.9,6.7,16,6.7h0.1c0,0,0,0,0.1,0c6.1,0,11.9-2.4,16.2-6.7l1.5-1.7
        c0.1-0.1,0.1-0.2,0.2-0.3l0.2-0.2c3.2-3.9,5-8.9,5-14.1s-1.7-10.1-5-14.2l-0.2-0.2c-0.1-0.1-0.1-0.2-0.2-0.3L41.2,8.8"></path>
                                                                                        <path fill="#D6E8F6" d="M16.5,32.8h-2.8c0.2,1,0.4,1.9,0.6,2.8l2.3-2.3C16.6,33.2,16.6,33,16.5,32.8 M15.2,11.4
        c-0.6-0.2-1.1-0.3-1.6-0.5c-0.1,0-0.2-0.1-0.3-0.1c-0.4-0.2-0.8-0.4-1.2-0.6c-0.2-0.1-0.3-0.1-0.5-0.2c-0.1-0.1-0.2-0.1-0.4-0.2
        c2.1-1.7,4.4-3.2,7-4c-1.1,1.5-2.1,3.3-2.9,5.5C15.2,11.4,15.2,11.4,15.2,11.4 M34.5,11.4c-0.8-2.2-1.8-4.1-3-5.6
        c2.7,0.8,5.2,2.3,7.3,4.2c-0.1,0-0.2,0.1-0.3,0.1c-0.2,0.1-0.4,0.2-0.5,0.2c-0.4,0.2-0.8,0.3-1.3,0.5c-0.1,0-0.2,0.1-0.3,0.1
        c-0.6,0.2-1,0.3-1.6,0.5C34.8,11.3,34.6,11.4,34.5,11.4 M25,12.5c-2.4,0-4.8-0.2-7-0.6c1.7-4.5,4.3-7.2,6.8-7.3h0.1
        c2.5,0,5.1,2.7,6.9,7.3C29.7,12.3,27.4,12.5,25,12.5 M25,2C25,2,25,2,25,2h-0.2c-6.1,0.1-11.7,2.4-16,6.7l-1.6,1.7
        c-0.1,0.1-0.1,0.2-0.2,0.3l-0.2,0.1C3.7,14.8,2,19.8,2,25c0,5.2,1.7,10.1,5,14.2l0.2,0.2c0.1,0.1,0.1,0.2,0.2,0.3l1.5,1.6
        c0,0,0,0,0,0l4.7-4.7c-0.8,0.2-1.5,0.5-2.2,0.7c-0.1,0.1-0.3,0.1-0.4,0.2c-0.3,0.1-0.6,0.3-0.9,0.4c-0.2,0-0.5,0.1-0.6,0.2
        C6.6,34.7,5,30.5,4.8,26.3h2.3v-2.7H4.8c0.3-4.2,1.8-8.3,4.5-11.5L9.4,12c0.2,0.1,0.5,0.2,0.6,0.3c0.4,0.2,0.6,0.3,1,0.5
        c0.1,0,0.2,0.1,0.3,0.1c1,0.4,2.1,0.7,3.3,1c-0.3,1-0.5,2-0.6,3h2.8c0.2-0.8,0.4-1.7,0.6-2.5c2.5,0.5,5.2,0.7,7.8,0.7
        c2.7,0,5.2-0.3,7.6-0.6c0.2,0.7,0.3,1.4,0.5,2.3l2.3-2.3c0-0.2-0.1-0.3-0.1-0.5c0.3-0.1,0.6-0.1,0.9-0.2l4.9-4.9l0,0
        C36.9,4.4,31.2,2,25,2"></path>
                                                                                        <path fill="#FFFFFF" d="M19.2,24.9c0,1.1-0.1,2-0.4,2.8s-0.7,1.4-1.2,1.9c-0.5,0.5-1.2,0.9-1.9,1.1C14.9,30.9,14,31,12.9,31h-2.8
        c-0.2,0-0.4-0.1-0.5-0.2c-0.1-0.1-0.2-0.3-0.2-0.6V19.9c0-0.3,0.1-0.5,0.2-0.6c0.1-0.1,0.3-0.2,0.5-0.2h3c1.1,0,2,0.1,2.7,0.4
        c0.7,0.2,1.4,0.6,1.9,1.1c0.5,0.5,0.9,1.1,1.2,1.8C19.1,23.1,19.2,23.9,19.2,24.9z M16.7,24.9c0-0.6-0.1-1.1-0.2-1.6
        c-0.1-0.5-0.3-0.9-0.6-1.3s-0.7-0.6-1.1-0.8C14.3,21.1,13.7,21,13,21h-1.2v8.1H13c0.7,0,1.2-0.1,1.7-0.3c0.5-0.2,0.8-0.4,1.1-0.8
        c0.3-0.3,0.5-0.8,0.7-1.3C16.6,26.2,16.7,25.6,16.7,24.9z"></path>
                                                                                        <path fill="#FFFFFF" d="M31,30.1c0,0.1,0,0.3-0.1,0.4c-0.1,0.1-0.1,0.2-0.2,0.3c-0.1,0.1-0.2,0.1-0.3,0.2c-0.1,0-0.2,0.1-0.3,0.1h-1
        c-0.2,0-0.4,0-0.6-0.1c-0.2,0-0.3-0.1-0.4-0.2c-0.1-0.1-0.3-0.3-0.4-0.5c-0.1-0.2-0.3-0.4-0.4-0.7l-3-5.6c-0.2-0.3-0.3-0.7-0.5-1.1
        c-0.2-0.4-0.3-0.8-0.5-1.1h0c0,0.4,0,0.9,0.1,1.3c0,0.4,0,0.9,0,1.4v6.2l-0.1,0.2l-0.2,0.1C23.1,31,23,31,22.8,31
        c-0.1,0-0.3,0-0.5,0c-0.2,0-0.4,0-0.5,0c-0.1,0-0.3,0-0.3-0.1l-0.2-0.1l0-0.2V20c0-0.3,0.1-0.5,0.3-0.6c0.2-0.1,0.4-0.2,0.6-0.2
        h1.3c0.2,0,0.4,0,0.6,0.1s0.3,0.1,0.4,0.2c0.1,0.1,0.2,0.2,0.4,0.4c0.1,0.2,0.2,0.4,0.3,0.6l2.3,4.3c0.1,0.3,0.3,0.5,0.4,0.8
        s0.3,0.5,0.4,0.8c0.1,0.3,0.2,0.5,0.4,0.7c0.1,0.2,0.2,0.5,0.3,0.7h0c0-0.4,0-0.9,0-1.3c0-0.5,0-0.9,0-1.3v-5.6l0.1-0.2l0.2-0.1
        c0.1,0,0.2-0.1,0.3-0.1c0.1,0,0.3,0,0.5,0c0.2,0,0.4,0,0.5,0s0.2,0,0.3,0.1l0.2,0.1l0,0.2L31,30.1L31,30.1z">
                                                                                        </path>
                                                                                        <path fill="#FFFFFF" d="M40.6,27.4c0,0.6-0.1,1.2-0.3,1.6c-0.2,0.5-0.5,0.9-0.9,1.2c-0.4,0.3-0.9,0.6-1.4,0.7
        c-0.5,0.2-1.1,0.2-1.7,0.2c-0.4,0-0.8,0-1.1-0.1c-0.4-0.1-0.7-0.1-0.9-0.2c-0.3-0.1-0.5-0.2-0.7-0.3c-0.2-0.1-0.3-0.2-0.4-0.3
        c-0.1-0.1-0.1-0.2-0.2-0.3c0-0.2-0.1-0.4-0.1-0.6c0-0.2,0-0.3,0-0.5c0-0.1,0-0.2,0.1-0.3l0.1-0.2l0.2-0.1c0.1,0,0.2,0.1,0.4,0.2
        c0.2,0.1,0.4,0.2,0.6,0.3c0.2,0.1,0.5,0.2,0.9,0.3c0.3,0.1,0.7,0.2,1.2,0.2c0.3,0,0.6,0,0.8-0.1c0.2-0.1,0.4-0.2,0.6-0.3
        c0.2-0.1,0.3-0.3,0.4-0.5c0.1-0.2,0.1-0.4,0.1-0.6c0-0.3-0.1-0.5-0.2-0.7c-0.1-0.2-0.3-0.4-0.6-0.5c-0.2-0.1-0.5-0.3-0.8-0.4
        c-0.3-0.1-0.6-0.3-0.9-0.4c-0.3-0.1-0.6-0.3-0.9-0.5c-0.3-0.2-0.6-0.4-0.8-0.7c-0.2-0.3-0.4-0.6-0.6-0.9c-0.1-0.4-0.2-0.8-0.2-1.3
        c0-0.6,0.1-1.1,0.3-1.5c0.2-0.4,0.5-0.8,0.9-1.1c0.4-0.3,0.8-0.5,1.3-0.6c0.5-0.1,1-0.2,1.5-0.2c0.3,0,0.6,0,0.8,0.1
        s0.5,0.1,0.8,0.2c0.2,0.1,0.5,0.2,0.7,0.2c0.2,0.1,0.3,0.2,0.4,0.2l0.1,0.2l0.1,0.2c0,0.1,0,0.2,0,0.3c0,0.1,0,0.2,0,0.4
        c0,0.2,0,0.3,0,0.4c0,0.1,0,0.2,0,0.3l-0.1,0.2l-0.2,0.1c-0.1,0-0.2,0-0.3-0.1c-0.1-0.1-0.3-0.2-0.5-0.3c-0.2-0.1-0.5-0.2-0.7-0.3
        c-0.3-0.1-0.6-0.1-0.9-0.1c-0.3,0-0.5,0-0.7,0.1c-0.2,0.1-0.4,0.2-0.5,0.3c-0.1,0.1-0.2,0.2-0.3,0.4c-0.1,0.2-0.1,0.3-0.1,0.5
        c0,0.3,0.1,0.5,0.2,0.7c0.1,0.2,0.3,0.4,0.6,0.5s0.5,0.3,0.8,0.4c0.3,0.1,0.6,0.3,0.9,0.4c0.3,0.1,0.6,0.3,0.9,0.5
        c0.3,0.2,0.6,0.4,0.8,0.7c0.2,0.3,0.4,0.6,0.6,0.9C40.6,26.5,40.6,26.9,40.6,27.4z"></path>
                                                                                    </g>
                                                                                </svg>