<svg viewBox="0 0 36 36" xmlns="http://www.w3.org/2000/svg" aria-hidden="true">
                                                                    <g>
                                                                        <path d="M16,24.17v-.9c-4.01,0-7.27-3.26-7.27-7.27s3.26-7.27,7.27-7.27c3.32,0,6.12,2.23,6.99,5.27h2.06c-.85-3.85-4.1-6.81-8.09-7.22,.02-.08,.05-.15,.05-.23V3c0-.55-.45-1-1-1s-1,.45-1,1v3.55c0,.08,.03,.15,.05,.23-4.35,.45-7.82,3.92-8.27,8.27-.08-.02-.15-.05-.23-.05H3c-.55,0-1,.45-1,1s.45,1,1,1h3.55c.08,0,.15-.03,.23-.05,.43,4.22,3.7,7.59,7.86,8.21,.35-.45,.82-.8,1.36-.99Z">
                                                                        </path>
                                                                        <path d="M16,11.45c-2.51,0-4.55,2.04-4.55,4.55s2.04,4.55,4.55,4.55c1.74,0,3.24-.99,4-2.43v-1.11c0-.6,.18-1.15,.48-1.62-.31-2.21-2.19-3.92-4.48-3.92Zm0,7.09c-1.4,0-2.55-1.14-2.55-2.55s1.14-2.55,2.55-2.55,2.55,1.14,2.55,2.55-1.14,2.55-2.55,2.55Z">
                                                                        </path>
                                                                    </g>
                                                                    <path d="M33,34h-9.95v-2h8.95v-14h-8v5h-2v-6c0-.55,.45-1,1-1h10c.55,0,1,.45,1,1v16c0,.55-.45,1-1,1Z">
                                                                    </path>
                                                                    <path d="M30,32.79h-2v-8.79h-8v2.87h-2v-3.87c0-.55,.45-1,1-1h10c.55,0,1,.45,1,1v9.79Z">
                                                                    </path>
                                                                    <path d="M23,34h-6c-.55,0-1-.45-1-1v-6c0-.55,.45-1,1-1h6c.55,0,1,.45,1,1v6c0,.55-.45,1-1,1Zm-5-2h4v-4h-4v4Z">
                                                                    </path>
                                                                </svg>