<svg viewBox="0 0 36 36" xmlns="http://www.w3.org/2000/svg" aria-hidden="true">
                                                                    <path d="M30,4H6A2,2,0,0,0,4,6V30a2,2,0,0,0,2,2H30a2,2,0,0,0,2-2V6A2,2,0,0,0,30,4ZM6,6H28.87L6,28.87ZM7.13,30,30,7.13V30Z">
                                                                    </path>
                                                                    <polygon points="11.5 10 16 10 16 8 8 8 8 16 10 16 10 11.33 15.21 16.54 16.63 15.13 11.5 10">
                                                                    </polygon>
                                                                    <polygon points="26 24.5 20.87 19.37 19.46 20.79 24.67 26 20 26 20 28 28 28 28 20 26 20 26 24.5">
                                                                    </polygon>
                                                                </svg>