<svg viewBox="0 0 16 16" fill="none" xmlns="http://www.w3.org/2000/svg">
                                                                        <path fill-rule="evenodd" clip-rule="evenodd" d="M8.44685 8.43898H7.48199V8.42108H3.46547L3.44752 7.51734L8.44685 7.51734V3.24262C8.44685 3.04832 8.34364 2.93987 8.30773 2.93987H3.46098L3.44752 2.0542H8.30773C8.92209 2.10469 9.38313 2.64127 9.3444 3.2607V7.51734V7.53524H13.4058L12.5083 6.63149C12.3343 6.45525 12.3343 6.1706 12.5083 5.99435C12.5918 5.91087 12.7047 5.86381 12.8224 5.86331C12.9417 5.86261 13.0563 5.90977 13.141 5.99435L15.1111 7.96452L13.141 9.9392C12.966 10.1144 12.6833 10.1144 12.5083 9.9392C12.4233 9.85435 12.3755 9.73886 12.3755 9.61837C12.3755 9.49788 12.4233 9.38239 12.5083 9.29754L13.3609 8.43898H9.3444V12.6732C9.38313 13.2926 8.92209 13.8292 8.30773 13.8797H3.46547L3.44303 12.9986H8.30773C8.34364 12.9986 8.44685 12.8901 8.44685 12.6958V8.43898ZM2.22324 1.57982C2.27973 1.54693 2.3495 1.54749 2.40545 1.5813C2.46141 1.61511 2.49474 1.67683 2.4925 1.74249V2.23052V3.0484V3.41894C2.49243 3.48442 2.45719 3.54474 2.40039 3.57662C2.34358 3.6085 2.2741 3.60695 2.21875 3.57258L1.00257 2.7818C0.931172 2.73778 0.88801 2.65921 0.88893 2.57492C0.88985 2.49062 0.934716 2.41302 1.00706 2.3706L2.22324 1.57982ZM2.22324 7.00229C2.27973 6.9694 2.3495 6.96997 2.40545 7.00377C2.46141 7.03758 2.49474 7.0993 2.4925 7.16497V7.65299V8.47088V8.84141C2.49243 8.90689 2.45719 8.96721 2.40039 8.99909C2.34358 9.03097 2.2741 9.02943 2.21875 8.99505L1.00257 8.20427C0.931172 8.16026 0.88801 8.08168 0.88893 7.99739C0.88985 7.91309 0.934716 7.83549 1.00706 7.79307L2.22324 7.00229ZM2.22324 12.4248C2.27973 12.3919 2.3495 12.3924 2.40545 12.4262C2.46141 12.46 2.49474 12.5218 2.4925 12.5874V13.0755V13.8933V14.2639C2.49243 14.3294 2.45719 14.3897 2.40039 14.4216C2.34358 14.4534 2.2741 14.4519 2.21875 14.4175L1.00257 13.6267C0.931172 13.5827 0.88801 13.5042 0.88893 13.4199C0.88985 13.3356 0.934716 13.258 1.00706 13.2155L2.22324 12.4248Z" fill="#F1428A"></path>
                                                                    </svg>