<svg viewBox="0 0 36 36" xmlns="http://www.w3.org/2000/svg" aria-hidden="true">
                                                                    <g>
                                                                        <path d="M16,11.45c-2.51,0-4.55,2.04-4.55,4.55,0,1.75,1,3.25,2.46,4.01,.26-.62,.58-1.2,.94-1.75-.82-.42-1.4-1.27-1.4-2.26,0-1.4,1.14-2.55,2.55-2.55,.99,0,1.84,.57,2.26,1.4,.56-.36,1.14-.68,1.75-.94-.76-1.45-2.26-2.46-4.01-2.46Z">
                                                                        </path>
                                                                        <path d="M13,24.5c0-.62,.06-1.22,.16-1.81-2.6-1.11-4.43-3.69-4.43-6.69,0-4.01,3.26-7.27,7.27-7.27,3,0,5.58,1.83,6.69,4.43,.59-.09,1.19-.16,1.81-.16,.09,0,.18,.01,.27,.01-1.15-3.36-4.17-5.86-7.82-6.24,.02-.08,.05-.15,.05-.23V3c0-.55-.45-1-1-1s-1,.45-1,1v3.55c0,.08,.03,.15,.05,.23-4.35,.45-7.82,3.92-8.27,8.27-.08-.02-.15-.05-.23-.05H3c-.55,0-1,.45-1,1s.45,1,1,1h3.55c.08,0,.15-.03,.23-.05,.37,3.65,2.88,6.67,6.24,7.82,0-.09-.01-.18-.01-.27Z">
                                                                        </path>
                                                                    </g>
                                                                    <g>
                                                                        <path d="M24.5,34c-5.24,0-9.5-4.26-9.5-9.5s4.26-9.5,9.5-9.5,9.5,4.26,9.5,9.5-4.26,9.5-9.5,9.5Zm0-17c-4.14,0-7.5,3.36-7.5,7.5s3.36,7.5,7.5,7.5,7.5-3.36,7.5-7.5-3.36-7.5-7.5-7.5Z">
                                                                        </path>
                                                                        <path d="M17.38,27.03l-1.76-.95c2.36-4.37,6.92-7.08,11.88-7.08,1.53,0,3.04,.25,4.47,.76l-.66,1.89c-1.22-.43-2.5-.65-3.81-.65-4.23,0-8.11,2.31-10.12,6.03Z">
                                                                        </path>
                                                                        <path d="M31.1,30.99c-7.06-.21-12.81-5.9-13.08-12.96l2-.08c.24,6.01,5.13,10.86,11.15,11.03l-.06,2Z">
                                                                        </path>
                                                                        <path d="M19.5,31c-.5,0-1.01-.03-1.5-.08l.22-1.99c.42,.05,.86,.07,1.28,.07,5.46,0,10.2-3.88,11.27-9.22l1.96,.39c-1.26,6.27-6.83,10.83-13.24,10.83Z">
                                                                        </path>
                                                                    </g>
                                                                </svg>