<svg version="1.1" id="Layer_1" xmlns="http://www.w3.org/2000/svg" xmlns:xlink="http://www.w3.org/1999/xlink" x="0px" y="0px" viewBox="0 0 50 50" style="enable-background:new 0 0 50 50;" xml:space="preserve">
                                                                                    <g>
                                                                                        <path fill="#3999C6" d="M0.7,7.3v35.3c0,3.7,8.2,6.7,18.3,6.7v-42H0.7z">
                                                                                        </path>
                                                                                        <path fill="#59B4D9" d="M18.8,49.3h0.3c10.2,0,18.3-2.9,18.3-6.7V7.3H18.8V49.3">
                                                                                        </path>
                                                                                        <path fill="#FFFFFF" d="M37.3,7.3c0,3.6-8.2,6.7-18.3,6.7C8.9,14,0.7,11,0.7,7.3c0-3.7,8.2-6.6,18.3-6.6C29.1,0.7,37.3,3.7,37.3,7.3">
                                                                                        </path>
                                                                                        <path fill="#7FBA00" d="M33.6,7c0,2.4-6.6,4.4-14.6,4.4S4.4,9.4,4.4,7S10.9,2.6,19,2.6C27.1,2.6,33.6,4.5,33.6,7">
                                                                                        </path>
                                                                                        <path fill="#B8D432" d="M30.5,9.6c2-0.8,3-1.7,3-2.6c0-2.4-6.6-4.4-14.6-4.4c-8,0-14.5,1.9-14.5,4.4c0,1,1.2,2,3,2.6
        c2.6-1.1,6.8-1.7,11.5-1.7C23.6,7.9,27.9,8.6,30.5,9.6"></path>
                                                                                        <path fill="#0072C6" d="M23.9,21.3v23.6c0,2.4,5.5,4.4,12.2,4.4v-28H23.9">
                                                                                        </path>
                                                                                        <path fill="#0072C6" d="M36,49.3h0.2c6.7,0,12.2-2,12.2-4.4V21.3H36V49.3">
                                                                                        </path>
                                                                                        <path fill="#2687CE" d="M48.4,21.3h-11H36v28h0.2c6.7,0,12.2-2,12.2-4.4V21.3">
                                                                                        </path>
                                                                                        <path fill="#FFFFFF" d="M48.4,21.3c0,2.4-5.5,4.4-12.2,4.4S24,23.7,24,21.3c0-2.4,5.5-4.4,12.2-4.4S48.4,18.9,48.4,21.3">
                                                                                        </path>
                                                                                        <path fill="#7FBA00" d="M45.9,21c0,1.6-4.4,2.9-9.7,2.9s-9.7-1.3-9.7-2.9s4.4-2.9,9.7-2.9S45.9,19.5,45.9,21">
                                                                                        </path>
                                                                                        <path fill="#B8D432" d="M43.8,22.8c1.3-0.5,2.1-1.1,2.1-1.8c0-1.6-4.4-2.9-9.7-2.9c-5.4,0-9.7,1.3-9.7,2.9c0,0.7,0.8,1.3,2.1,1.8
        c1.8-0.7,4.6-1.2,7.7-1.2C39.2,21.6,41.9,22.1,43.8,22.8"></path>
                                                                                        <polygon fill="#FFFFFF" points="42.8,35.6 29.2,46.9 34.5,38.2 29.9,38.2 43.5,27 38.2,35.6   ">
                                                                                        </polygon>
                                                                                    </g>
                                                                                </svg>