<svg xmlns="http://www.w3.org/2000/svg" xmlns:xlink="http://www.w3.org/1999/xlink" viewBox="0 0 50 50" version="1.1">
                                                                        <g id="surface1">
                                                                            <path style=" stroke:none;fill-rule:evenodd;fill:rgb(0%,47.45098%,72.156863%);fill-opacity:1;" d="M 23.234375 2.386719 C 23.695312 2.128906 24.261719 2.140625 24.714844 2.414062 L 30.910156 6.183594 C 31.5 6.542969 31.761719 7.269531 31.53125 7.921875 L 31.496094 8.023438 L 28.277344 8.023438 L 23.917969 5.375 L 6.75 14.941406 L 23.914062 24.050781 L 31.128906 19.839844 L 23.792969 15.714844 C 23.324219 15.453125 23.035156 14.953125 23.042969 14.417969 C 23.046875 13.878906 23.347656 13.386719 23.824219 13.136719 L 27.699219 11.078125 L 27.699219 14.027344 L 28.417969 14.027344 L 27.578125 14.472656 L 34.808594 18.53125 C 35.269531 18.792969 35.558594 19.285156 35.558594 19.816406 L 35.558594 29.015625 L 40.855469 25.742188 L 39.703125 25.035156 L 40.007812 24.53125 L 41.21875 24.53125 L 41.21875 23.027344 L 40.929688 23.027344 L 41.234375 22.527344 L 44.429688 24.480469 C 44.867188 24.746094 45.132812 25.222656 45.132812 25.734375 L 45.132812 36.496094 C 45.132812 37.023438 44.851562 37.507812 44.394531 37.769531 L 24.679688 49.070312 C 24.234375 49.328125 23.683594 49.332031 23.234375 49.078125 L 2.957031 37.78125 C 2.492188 37.519531 2.203125 37.027344 2.203125 36.496094 L 2.203125 14.972656 C 2.203125 14.4375 2.492188 13.945312 2.957031 13.6875 Z M 42.191406 28.371094 L 34.859375 32.902344 C 34.40625 33.183594 33.835938 33.195312 33.371094 32.9375 C 32.90625 32.675781 32.617188 32.1875 32.617188 31.652344 L 32.617188 22.375 L 25.417969 26.578125 L 25.417969 45.257812 L 42.191406 35.644531 Z M 22.480469 45.292969 L 22.480469 26.617188 L 5.144531 17.417969 L 5.144531 35.632812 Z M 22.480469 45.292969 ">
                                                                            </path>
                                                                            <path style=" stroke:none;fill-rule:evenodd;fill:rgb(38.431373%,64.313725%,12.54902%);fill-opacity:1;" d="M 37.53125 2.4375 C 37.976562 2.203125 38.507812 2.207031 38.941406 2.453125 L 48.515625 7.835938 C 48.980469 8.097656 49.265625 8.585938 49.265625 9.117188 L 49.265625 19.878906 C 49.265625 20.390625 49.003906 20.863281 48.570312 21.128906 L 38.992188 27.046875 C 38.535156 27.332031 37.957031 27.34375 37.488281 27.074219 L 35.542969 25.957031 L 35.542969 22.566406 L 36.75 23.257812 L 36.75 15.878906 L 32.410156 13.347656 L 29.554688 11.679688 L 29.554688 15.53125 L 29.578125 15.542969 L 29.578125 15.609375 L 26.613281 13.953125 L 26.613281 9.117188 C 26.613281 8.570312 26.914062 8.074219 27.394531 7.816406 Z M 39.691406 23.160156 L 46.324219 19.058594 L 46.324219 11.753906 L 39.691406 15.855469 Z M 38.199219 13.320312 L 44.902344 9.179688 L 38.203125 5.410156 L 31.105469 9.179688 L 33.894531 10.804688 Z M 38.199219 13.320312 ">
                                                                            </path>
                                                                        </g>
                                                                    </svg>