<svg viewBox="0 0 36 36" xmlns="http://www.w3.org/2000/svg" aria-hidden="true">
                                                                    <g>
                                                                        <path d="M20.46,15.17c-.39-2.11-2.24-3.71-4.46-3.71-2.51,0-4.55,2.04-4.55,4.55s2.04,4.55,4.55,4.55c.32,0,.62-.03,.92-.09v-1.84c0-.09,.01-.17,.02-.25-.29,.12-.61,.19-.94,.19-1.4,0-2.55-1.14-2.55-2.55s1.14-2.55,2.55-2.55,2.52,1.12,2.54,2.51c.09-.05,.17-.09,.27-.13l1.65-.66Z">
                                                                        </path>
                                                                        <path d="M16.92,25.15v-1.95c-.3,.04-.61,.07-.92,.07-4.01,0-7.27-3.26-7.27-7.27s3.26-7.27,7.27-7.27c3.37,0,6.2,2.3,7.02,5.42l1.87-.75c-1.04-3.55-4.16-6.23-7.94-6.62,.02-.08,.05-.15,.05-.23V3c0-.55-.45-1-1-1s-1,.45-1,1v3.55c0,.08,.03,.15,.05,.23-4.35,.45-7.82,3.92-8.27,8.27-.08-.02-.15-.05-.23-.05H3c-.55,0-1,.45-1,1s.45,1,1,1h3.55c.08,0,.15-.03,.23-.05,.45,4.35,3.92,7.82,8.27,8.27-.02,.08-.05,.15-.05,.23v3.55c0,.55,.45,1,1,1s1-.45,1-1v-2.68c-.05-.39-.08-.78-.08-1.17Z">
                                                                        </path>
                                                                    </g>
                                                                    <path d="M26.46,34c-.13,0-.25-.02-.37-.07-.29-.12-7.17-2.93-7.17-8.77v-6.54c0-.41,.25-.78,.63-.93l6.54-2.62c.24-.1,.5-.1,.74,0l6.54,2.62c.38,.15,.63,.52,.63,.93v6.54c0,5.84-6.87,8.66-7.17,8.77-.12,.05-.25,.07-.37,.07Zm-5.54-14.71v5.86c0,3.82,4.24,6.13,5.54,6.75,1.3-.62,5.54-2.94,5.54-6.75v-5.86l-5.54-2.21-5.54,2.21Z">
                                                                    </path>
                                                                </svg>