<svg version="1.1" id="Layer_1" xmlns="http://www.w3.org/2000/svg" xmlns:xlink="http://www.w3.org/1999/xlink" x="0px" y="0px" viewBox="0 0 152 117.5" style="enable-background:new 0 0 152 117.5;" xml:space="preserve">
                                                                                    <g id="paths">
                                                                                        <g id="Azure_SQL_database">
                                                                                            <g>
                                                                                                <path fill="#0078D7" d="M59.6,59.4c0.3,0.5,0.8,0.8,1.3,0.8c0.5,0.3,1.1,0.3,1.6,0.3c0.5,0,1.1,0,1.3-0.3c0.5-0.3,0.8-0.5,1.3-1.1
                c0.3-0.5,0.5-1.1,0.8-1.6c0.3-0.5,0.3-1.3,0.3-2.4c0-0.8,0-1.3-0.3-2.1s-0.3-1.3-0.8-1.9c-0.3-0.5-0.8-0.8-1.1-1.3
                c-0.5-0.3-1.1-0.5-1.6-0.5c-0.8,0-1.3,0.3-1.9,0.5c-0.5,0.3-0.8,0.8-1.3,1.1c-0.3,0.5-0.5,1.1-0.8,1.6c-0.3,0.5-0.3,1.3-0.3,2.1
                c0,1.1,0,1.9,0.3,2.4C59,58.3,59.3,58.8,59.6,59.4z"></path>
                                                                                                <path fill="#0078D7" d="M74.9,80c0.8,0,1.9,0,2.6,0.3c4.2-8.5,12.7-14,22.5-14.5V16.2C100,8.3,82.8,0.6,62,0.6
                c-21.2,0-38.1,7.1-38.1,15.1v71.4c0,7.1,14,14,32.3,15.1c-0.3-1.1-0.3-2.1-0.3-3.2C55.9,88.7,64.3,80,74.9,80z M88.7,65.4H75.4
                V45.1h6.1v15.6h7.1V65.4z M62,6.2c15.1,0,27.2,3.7,27.2,8.2c0,4.5-12.2,8.2-27.2,8.2s-27.2-3.7-27.2-8.2
                C34.7,9.9,46.9,6.2,62,6.2z M50.6,60.7c0,0.5-0.3,1.1-0.5,1.6c-0.3,0.5-0.5,1.1-1.1,1.3c-0.5,0.5-1.1,0.8-1.6,1.1
                c-0.5,0.3-1.3,0.5-2.4,0.8c-0.8,0.3-1.9,0.3-3.2,0.3c-0.5,0-1.3,0-1.9,0s-1.1,0-1.6-0.3c-0.5,0-1.1-0.3-1.3-0.3
                c-0.5,0-0.8-0.3-1.1-0.5v-5.6c0.3,0.3,0.8,0.5,1.3,0.8s0.8,0.5,1.3,0.8s1.1,0.3,1.6,0.5c0.5,0.3,1.1,0.3,1.6,0.3
                c0.5,0,0.8,0,1.1-0.3c0.3,0,0.5-0.3,0.5-0.3c0.3,0,0.3-0.3,0.3-0.5c0-0.3,0-0.3,0-0.5c0-0.3,0-0.5-0.3-0.8
                c-0.3-0.3-0.3-0.5-0.5-0.5c-0.3-0.3-0.5-0.3-1.1-0.5c-0.5-0.3-0.8-0.3-1.3-0.5c-0.8-0.3-1.6-0.8-2.4-1.3
                c-0.5-0.5-1.1-0.8-1.6-1.3c-0.5-0.5-0.8-1.1-0.8-1.6c-0.3-0.5-0.3-1.3-0.3-1.9c0-1.1,0.3-1.9,0.5-2.6c0.5-0.8,1.1-1.6,1.6-2.1
                c0.8-0.5,1.6-1.1,2.6-1.3c1.1-0.3,2.1-0.5,3.4-0.5c0.8,0,1.3,0,1.9,0s1.1,0,1.6,0.3c0.5,0,0.8,0.3,1.3,0.3c0.3,0,0.8,0.3,1.1,0.3
                v5.3c-0.3-0.3-0.5-0.3-1.1-0.5c-0.3-0.3-0.8-0.3-1.3-0.5c-0.5-0.3-0.8-0.3-1.3-0.3s-1.1,0-1.6,0c-0.8,0-1.3,0-1.6,0.3
                c-0.5,0.3-0.5,0.5-0.5,1.1c0,0.3,0,0.5,0.3,0.5c0,0.3,0.3,0.3,0.5,0.5c0.3,0.3,0.5,0.3,0.8,0.5c0.3,0.3,0.8,0.3,1.3,0.5
                c0.8,0.3,1.6,0.8,2.4,1.1c0.8,0.5,1.3,0.8,1.9,1.3c0.5,0.5,0.8,1.1,1.3,1.6c0.3,0.5,0.5,1.3,0.5,2.4
                C50.6,59.6,50.6,60.1,50.6,60.7z M52.7,59.6c-0.5-1.3-0.8-2.6-0.8-4.2c0-1.6,0.3-3.2,0.8-4.5c0.5-1.3,1.3-2.4,2.1-3.4
                c0.8-1.1,2.1-1.6,3.2-2.1c1.3-0.5,2.6-0.8,4.2-0.8c1.6,0,2.9,0.3,4,0.8c1.3,0.5,2.4,1.3,3.2,2.1c0.8,0.8,1.6,2.1,2.1,3.2
                c0.5,1.3,0.8,2.6,0.8,4.5c0,1.1,0,2.4-0.5,3.2c-0.3,1.1-0.8,1.9-1.3,2.6c-0.5,0.8-1.1,1.6-1.9,2.1c-0.8,0.5-1.3,1.1-2.4,1.6
                l6.9,5.8h-7.9l-4.5-4.8c-1.3,0-2.6-0.5-3.7-0.8c-1.1-0.5-2.1-1.3-2.9-2.1C54,62,53.2,60.9,52.7,59.6z">
                                                                                                </path>
                                                                                                <path fill="#0078D7" d="M133.4,106.2c0-5-4-9.3-9-9.8c0.3-1.6,0.5-2.9,0.5-4.5c0-13-10.6-23.5-23.5-23.5c-9.8,0-18.5,5.8-21.9,14.8
                c-1.3-0.3-2.6-0.5-4.2-0.5c-9.3,0-16.7,7.4-16.7,16.7c0,9,7.1,16.4,16.4,16.7h49.7h1.9v-0.3C130.4,114.6,133.4,110.7,133.4,106.2
                z M124.4,113.3H75.2c-7.7,0-14-6.3-14-14s6.3-14,14-14c1.6,0,3.2,0.3,4.5,0.8l1.3,0.5l0.5-1.3C84.4,76.8,92.4,71,101.4,71
                c11.6,0,20.9,9.5,20.9,20.9c0,1.9-0.3,3.7-0.8,5.6l-0.5,2.1l1.9-0.3c0.3,0,0.5,0,0.8,0c4,0,7.1,3.2,7.1,7.1
                C130.7,109.9,128.1,113,124.4,113.3z"></path>
                                                                                            </g>
                                                                                        </g>
                                                                                    </g>
                                                                                </svg>