<svg version="1.1" id="Layer_1" xmlns="http://www.w3.org/2000/svg" xmlns:xlink="http://www.w3.org/1999/xlink" x="0px" y="0px" viewBox="0 0 50 50" style="enable-background:new 0 0 50 50;" xml:space="preserve">
                                                                                    <g>
                                                                                        <path fill="#0072C6" d="M6.3,6.8v36.1c0,3.7,8.4,6.8,18.7,6.8V6.8H6.3">
                                                                                        </path>
                                                                                        <path fill="#0072C6" d="M24.7,49.7H25c10.4,0,18.7-3,18.7-6.8V6.8h-19V49.7">
                                                                                        </path>
                                                                                        <path fill="#2687CE" d="M43.7,6.8h-19v42.9H25c10.4,0,18.7-3,18.7-6.8V6.8">
                                                                                        </path>
                                                                                        <path fill="#FFFFFF" d="M43.7,6.8c0,3.7-8.4,6.8-18.7,6.8s-18.7-3-18.7-6.8C6.3,3,14.6,0,25,0C35.4,0,43.7,3,43.7,6.8">
                                                                                        </path>
                                                                                        <path fill="#7FBA00" d="M39.9,6.4c0,2.5-6.7,4.5-14.9,4.5s-14.9-2-14.9-4.5S16.8,1.9,25,1.9S39.9,3.9,39.9,6.4">
                                                                                        </path>
                                                                                        <path fill="#B8D432" d="M36.8,9.1c2-0.8,3.1-1.7,3.1-2.7c0-2.5-6.7-4.5-14.9-4.5s-14.9,2-14.9,4.5c0,1,1.2,2,3.1,2.7
        c2.7-1.1,7-1.7,11.8-1.7S34.1,8.1,36.8,9.1"></path>
                                                                                        <path fill="#FFFFFF" d="M19,31.9c0,1.1-0.4,2-1.2,2.6c-0.8,0.6-1.9,0.9-3.4,0.9c-1.2,0-2.2-0.2-3.1-0.7v-2.6c0.9,0.8,2,1.2,3.1,1.2
        c0.6,0,1-0.1,1.3-0.3c0.3-0.2,0.5-0.5,0.5-0.9c0-0.4-0.1-0.7-0.4-0.9c-0.3-0.2-0.9-0.6-1.8-1c-1.8-0.8-2.7-2-2.7-3.5
        c0-1.1,0.4-1.9,1.2-2.6c0.8-0.6,1.8-1,3.1-1c1.2,0,2.1,0.2,2.9,0.5v2.5c-0.8-0.5-1.7-0.8-2.7-0.8c-0.5,0-0.9,0.1-1.2,0.3
        c-0.3,0.2-0.4,0.5-0.4,0.9s0.1,0.7,0.4,0.9c0.2,0.2,0.7,0.5,1.5,0.9c1.1,0.5,1.9,1.1,2.4,1.6C18.8,30.4,19,31.1,19,31.9z"></path>
                                                                                        <path fill="#FFFFFF" d="M31.8,29.2c0,1.4-0.3,2.6-0.9,3.6c-0.6,1-1.5,1.7-2.7,2.2l3.4,3.2h-3.5l-2.5-2.7c-1,0-2-0.3-2.8-0.8
        c-0.8-0.5-1.5-1.2-2-2.1c-0.5-0.9-0.7-1.9-0.7-3c0-1.2,0.2-2.3,0.7-3.3s1.2-1.7,2.1-2.2s1.9-0.8,3.1-0.8c1.1,0,2.1,0.2,2.9,0.8
        c0.9,0.5,1.5,1.2,2,2.1C31.5,27,31.8,28,31.8,29.2z M29,29.3c0-1.2-0.3-2.1-0.8-2.8s-1.2-1-2.1-1c-0.9,0-1.7,0.3-2.2,1
        c-0.6,0.7-0.8,1.6-0.8,2.8s0.3,2.1,0.8,2.8c0.5,0.7,1.3,1,2.2,1c0.9,0,1.6-0.3,2.2-1C28.7,31.4,29,30.5,29,29.3z">
                                                                                        </path>
                                                                                        <polygon fill="#FFFFFF" points="40.8,35.2 33.7,35.2 33.7,23.4 36.4,23.4 36.4,33 40.8,33     ">
                                                                                        </polygon>
                                                                                    </g>
                                                                                </svg>