<svg version="1.1" id="Layer_1" xmlns="http://www.w3.org/2000/svg" xmlns:xlink="http://www.w3.org/1999/xlink" x="0px" y="0px" viewBox="0 0 52.1 45.8" style="enable-background:new 0 0 52.1 45.8;" xml:space="preserve">
                                                                                    <g>
                                                                                        <path fill="#0078D7" d="M44.1,18.3h-3.3V2.9c0-0.8-0.7-1.5-1.5-1.5H2.8C2,1.4,1.3,2.1,1.3,2.9v30.7c0,0.8,0.7,1.5,1.5,1.5h20.7
        l5.4,9.4H44l7.5-13.1L44.1,18.3z M30.6,10.2h7.3v4.4h-7.3V10.2z M37.9,16.1v2.2h-7.3v-2.2H37.9z M21.8,10.2h7.3v4.4h-7.3V10.2z
         M21.8,16.1h7.3v2.2h-0.2l-1.3,2.2h-5.9L21.8,16.1L21.8,16.1z M21.8,21.9h5l-2.5,4.4h-2.5V21.9z M23.5,27.7l-1.7,2.9v-2.9H23.5z
         M11.6,32.1H4.3v-4.4h7.3V32.1z M11.6,26.3H4.3v-4.4h7.3V26.3z M11.6,20.4H4.3V16h7.3V20.4z M11.6,14.6H4.3v-4.4h7.3V14.6z
         M20.4,32.1h-7.3v-4.4h7.3V32.1z M20.4,26.3h-7.3v-4.4h7.3V26.3z M20.4,20.4h-7.3V16h7.3V20.4z M20.4,14.6h-7.3v-4.4h7.3V14.6z
         M21.8,32.1V32V32.1z"></path>
                                                                                    </g>
                                                                                </svg>