<svg version="1.1" id="Layer_1" xmlns="http://www.w3.org/2000/svg" xmlns:xlink="http://www.w3.org/1999/xlink" x="0px" y="0px" viewBox="0 0 137 117.5" style="enable-background:new 0 0 137 117.5;" xml:space="preserve">
                                                                                    <g id="paths">
                                                                                        <g id="Storage_blob">
                                                                                            <g>
                                                                                                <path fill="#0078D7" d="M102.1,0.4H35.4L2.2,58.2l33.2,57.8h66.7l33.2-57.8L102.1,0.4z M102.5,84.1c0,4.8-4.2,9-9,9H44.4
                c-4.8,0-9-4.2-9-9V32.6c0-4.8,4.2-9,9-9h36.3c3.5,0,6.9,0,6.9,0h1l13.8,13.8v7.3V84.1z"></path>
                                                                                                <path fill="#0078D7" d="M63.7,67.5c0-0.7-0.3-1-0.3-1.4c0-0.3-0.3-0.7-0.7-1s-0.3-0.3-0.7-0.3c-0.3,0-0.7,0-1,0c-0.7,0-1,0-1.4,0.3
                s-0.7,0.7-1,1.4c-0.3,0.7-0.3,1.4-0.3,2.1c0,0.7,0,1.7,0,3.1s0,2.4,0,3.5c0,1,0.3,1.7,0.7,2.1c0.3,0.7,0.7,1,1,1
                c0.3,0.3,0.7,0.3,1.4,0.3c0.3,0,0.7,0,1-0.3c0.3,0,0.7-0.3,0.7-0.7c0.3-0.3,0.3-0.7,0.7-1c0-0.3,0.3-0.7,0.3-1.4
                c0-0.3,0-1,0.3-1.7c0-0.7,0-1.4,0-2.1c0-1,0-1.7,0-2.4C63.7,68.6,63.7,68.2,63.7,67.5z"></path>
                                                                                                <path fill="#0078D7" d="M79.3,40.6c0-0.7-0.3-1-0.3-1.4c0-0.3-0.3-0.7-0.7-1s-0.3-0.3-0.7-0.3c-0.3,0-0.7,0-1,0c-0.7,0-1,0-1.4,0.3
                c-0.3,0.3-0.7,0.7-1,1.4c-0.3,0.7-0.3,1.4-0.3,2.1c0,0.7,0,1.7,0,3.1c0,1.4,0,2.4,0,3.5c0,1,0.3,1.7,0.7,2.1c0.3,0.7,0.7,1,1,1
                c0.3,0.3,0.7,0.3,1.4,0.3c0.3,0,0.7,0,1-0.3c0.3,0,0.7-0.3,0.7-0.7c0.3-0.3,0.3-0.7,0.7-1c0-0.3,0.3-0.7,0.3-1.4
                c0-0.3,0-1,0.3-1.7c0-0.7,0-1.4,0-2.1c0-1,0-1.7,0-2.4C79.6,41.9,79.6,41.2,79.3,40.6z"></path>
                                                                                                <path fill="#0078D7" d="M86.2,28.4c-1.4,0-3.5,0-5.5,0H44.4c-2.4,0-4.2,1.7-4.2,4.2v51.5c0,2.4,1.7,4.2,4.2,4.2h49.1
                c2.1,0,4.2-1.7,4.2-4.2V39.9H86.6V28.4H86.2z M55.4,38.8v-0.3v-0.3c0,0,0,0,0.3-0.3l4.2-2.8c0,0,0,0,0.3,0h0.3H61
                c0.3,0,0.3,0,0.7,0s0.7,0,1,0c0.3,0,0.3,0,0.7,0h0.3c0,0,0,0,0,0.3v16.3h3.1h0.3c0,0,0,0,0.3,0.3c0.3,0.3,0,0.3,0,0.3
                c0,0.3,0,0.3,0,0.7c0,0.3,0,0.7,0,0.7c0,0.3,0,0.3,0,0.3s0,0.3-0.3,0.3c0,0,0,0-0.3,0H56.1c0,0,0,0-0.3,0c0,0,0,0-0.3-0.3v-0.3
                c0-0.3,0-0.3,0-0.7c0-0.3,0-0.7,0-0.7c0-0.3,0-0.3,0-0.3s0-0.3,0.3-0.3c0,0,0,0,0.3,0h3.8V38.8l-3.1,1.7c-0.3,0-0.3,0.3-0.7,0.3
                h-0.3c0,0,0-0.3-0.3-0.3c0-0.3,0-0.3,0-1C55.4,39.2,55.4,38.8,55.4,38.8z M67.5,75.8c-0.3,1.4-0.7,2.4-1.4,3.1
                c-0.7,1-1.4,1.7-2.1,2.1c-1,0.3-2.1,0.7-3.5,0.7s-2.4-0.3-3.5-0.7c-1-0.3-1.7-1-2.1-2.1c-0.3-1-1-2.1-1-3.1
                c-0.3-1.4-0.3-2.8-0.3-4.2c0-1.7,0-3.1,0.3-4.2c0.3-1.4,0.7-2.4,1.4-3.1s1.4-1.7,2.1-2.1c1-0.3,2.1-0.7,3.5-0.7
                c1.4,0,2.4,0.3,3.5,0.7c1,0.3,1.7,1,2.1,2.1c0.3,1,1,2.1,1,3.1c0.3,1.4,0.3,2.8,0.3,4.2C67.9,73.4,67.9,74.8,67.5,75.8z
                 M83.1,80.7c0,0.3,0,0.3,0,0.3s0,0.3-0.3,0.3c0,0,0,0-0.3,0H71.7c0,0,0,0-0.3,0c0,0,0,0-0.3-0.3v-0.3c0-0.3,0-0.3,0-0.7
                c0-0.3,0-0.7,0-0.7c0-0.3,0-0.3,0-0.3s0-0.3,0.3-0.3c0,0,0,0,0.3,0h3.8V65.8l-3.1,1.7c-0.3,0-0.3,0.3-0.7,0.3h-0.3
                c0,0,0-0.3-0.3-0.3c0-0.3,0-0.3,0-1c0-0.3,0-0.3,0-0.7v-0.3v-0.3c0,0,0,0,0.3-0.3l4.2-2.8c0,0,0,0,0.3,0h0.3h0.3
                c0.3,0,0.3,0,0.7,0c0.3,0,0.7,0,1,0c0.3,0,0.3,0,0.7,0h0.3c0,0,0,0,0,0.3v16.3h3.1h0.3c0,0,0,0,0.3,0.3v0.3c0,0.3,0,0.3,0,0.7
                C83.1,80.3,83.1,80.7,83.1,80.7z M83.4,48.9c-0.3,1.4-0.7,2.4-1.4,3.1c-0.7,1-1.4,1.7-2.1,2.1c-1,0.3-2.1,0.7-3.5,0.7
                c-1.4,0-2.4-0.3-3.5-0.7c-1-0.3-1.7-1-2.1-2.1c-0.3-0.7-1-2.1-1-3.1s-0.3-2.8-0.3-4.2c0-1.7,0-3.1,0.3-4.2
                c0.3-1.4,0.7-2.4,1.4-3.1c0.7-1,1.4-1.7,2.1-2.1c1-0.3,2.1-0.7,3.5-0.7s2.4,0.3,3.5,0.7c1,0.3,1.7,1,2.1,2.1c0.3,1,1,2.1,1,3.1
                c0.3,1.4,0.3,2.8,0.3,4.2C83.8,46.4,83.4,47.8,83.4,48.9z"></path>
                                                                                            </g>
                                                                                        </g>
                                                                                    </g>
                                                                                </svg>