<svg viewBox="0 0 37 36" fill="none" xmlns="http://www.w3.org/2000/svg">
                                                                        <g clip-path="url(#clip0_4804_2666)">
                                                                            <path d="M27.5 5.18003C27.389 5.10977 27.2653 5.06206 27.1359 5.03961C27.0065 5.01717 26.8739 5.02043 26.7458 5.04922C26.6176 5.07801 26.4964 5.13175 26.389 5.20738C26.2817 5.28302 26.1902 5.37906 26.12 5.49003C25.9781 5.71414 25.931 5.98543 25.9892 6.24423C26.0473 6.50303 26.2059 6.72814 26.43 6.87003H26.5L32.5 10.34V27.62L26.5 31.09C26.3805 31.1525 26.2748 31.2386 26.1895 31.343C26.1041 31.4474 26.0407 31.568 26.0031 31.6975C25.9655 31.827 25.9545 31.9628 25.9708 32.0967C25.9871 32.2306 26.0302 32.3598 26.0977 32.4766C26.1652 32.5933 26.2556 32.6952 26.3635 32.7761C26.4714 32.8571 26.5946 32.9153 26.7256 32.9474C26.8566 32.9795 26.9927 32.9847 27.1258 32.9629C27.2589 32.941 27.3862 32.8924 27.5 32.82L34.5 28.77V9.23003L27.5 5.18003Z" fill="black"></path>
                                                                            <path d="M10.5 13V25C10.5 25.5304 10.7107 26.0391 11.0858 26.4142C11.4609 26.7893 11.9696 27 12.5 27H24.5C25.0304 27 25.5391 26.7893 25.9142 26.4142C26.2893 26.0391 26.5 25.5304 26.5 25V13C26.5 12.4696 26.2893 11.9609 25.9142 11.5858C25.5391 11.2107 25.0304 11 24.5 11H12.5C11.9696 11 11.4609 11.2107 11.0858 11.5858C10.7107 11.9609 10.5 12.4696 10.5 13ZM17.5 13V18H12.5V13H17.5ZM12.5 20H17.5V25H12.5V20ZM19.5 25V20H24.5V25H19.5ZM24.5 18H19.5V13H24.5V18Z" fill="black"></path>
                                                                            <path d="M4.5 24.08V10.38L10.18 7.10001C10.2994 7.04079 10.4058 6.9583 10.4929 6.85738C10.58 6.75646 10.646 6.63915 10.6871 6.51235C10.7282 6.38554 10.7435 6.2518 10.7321 6.11899C10.7208 5.98618 10.683 5.85697 10.621 5.73897C10.559 5.62097 10.474 5.51656 10.3711 5.43187C10.2682 5.34718 10.1493 5.28393 10.0216 5.24583C9.89388 5.20772 9.75981 5.19554 9.6273 5.21C9.49479 5.22446 9.36651 5.26526 9.25 5.33001H9.18L2.5 9.23001V24.68C3.13292 24.3811 3.80709 24.1789 4.5 24.08Z" fill="black"></path>
                                                                            <path d="M5.5 36C8.26142 36 10.5 33.7614 10.5 31C10.5 28.2386 8.26142 26 5.5 26C2.73858 26 0.5 28.2386 0.5 31C0.5 33.7614 2.73858 36 5.5 36Z" fill="#0091DA"></path>
                                                                        </g>
                                                                        <defs>
                                                                            <clipPath id="clip0_4804_2666">
                                                                                <rect width="36" height="36" fill="white" transform="translate(0.5)"></rect>
                                                                            </clipPath>
                                                                        </defs>
                                                                    </svg>