<svg id="Layer_1" xmlns="http://www.w3.org/2000/svg" viewBox="0 0 36 36">
                                                                        <defs>
                                                                            <style>
                                                                                .cls-1,
                                                                                .cls-2 {
                                                                                    stroke-width: 0px;
                                                                                }

                                                                                .cls-2 {
                                                                                    fill: #0091da;
                                                                                }
                                                                            </style>
                                                                        </defs>
                                                                        <path class="cls-2" d="m6,35c2.76,0,5-2.24,5-5s-2.24-5-5-5-5,2.24-5,5,2.24,5,5,5Z">
                                                                        </path>
                                                                        <path class="cls-1" d="m27,4.18c-.47-.3-1.08-.16-1.38.31s-.16,1.08.31,1.38h.07l6,3.47v17.28l-6,3.47c-.49.26-.68.86-.42,1.35.26.49.86.68,1.35.42.02-.01.05-.03.07-.04l7-4.05V8.23l-7-4.05Z">
                                                                        </path>
                                                                        <path class="cls-1" d="m10.13,4.76c-.25-.49-.85-.7-1.34-.45-.01,0-.03.01-.04.02h-.07l-6.68,3.9v16.03c.6-.42,1.28-.75,2-.97v-13.91l5.68-3.28c.49-.25.7-.85.45-1.34Z">
                                                                        </path>
                                                                        <path class="cls-1" d="m27,13.15l-9-5.31-9,5.31v10.58l9,5.31,9-5.31v-10.58Zm-3.34.35l-5.66,3.34-5.66-3.34,5.66-3.34,5.66,3.34Zm-12.66,1.53l6,3.54v7.55l-6-3.54v-7.55Zm8,11.08v-7.55l6-3.54v7.55l-6,3.54Z">
                                                                        </path>
                                                                    </svg>