<svg viewBox="0 0 62 56" fill="none" xmlns="http://www.w3.org/2000/svg">
                                                                        <path fill-rule="evenodd" clip-rule="evenodd" d="M43.5259 17.8876L39.6357 16.6372L38.802 14.5531L40.7472 10.9407C41.164 10.1071 41.0251 8.99555 40.3304 8.30086L36.9958 4.96634C36.3011 4.27165 35.1896 4.13271 34.356 4.54952L30.7436 6.49466L28.6595 5.66103L27.4091 1.77075C27.1312 0.937124 26.2976 0.242432 25.325 0.242432H20.6011C19.6285 0.242432 18.7949 0.937124 18.656 1.90969L17.4055 5.79997C16.5719 5.93891 15.8772 6.21678 15.1825 6.6336L11.5701 4.68846C10.7365 4.27165 9.62497 4.41058 8.93028 5.10528L5.59575 8.4398C4.90106 9.13449 4.76212 10.246 5.17894 11.0796L6.98514 14.5531C6.8462 14.9004 6.70726 15.2825 6.56833 15.6646C6.42939 16.0467 6.29045 16.4288 6.15151 16.7761L2.26123 18.0265C1.4276 18.3044 0.73291 19.1381 0.73291 20.1106V24.8345C0.73291 25.8071 1.4276 26.6407 2.40017 26.9186L6.29045 28.1691L7.12408 30.2531L5.17894 33.8655C4.76212 34.6992 4.90106 35.8107 5.59575 36.5054L8.93028 39.8399C9.62497 40.5346 10.7365 40.6735 11.5701 40.2567L15.1825 38.3116L17.2666 39.1452L18.517 43.1744C18.7949 44.008 19.6285 44.7027 20.6011 44.7027H25.325C26.2976 44.7027 27.1312 44.008 27.4091 43.1744L28.6595 39.1452L30.1221 38.5602V29.0925C28.3522 31.0083 25.8111 32.1983 22.9631 32.1983C17.5445 32.1983 13.2374 27.8912 13.2374 22.4726C13.2374 17.054 17.5445 12.7469 22.9631 12.7469C28.3817 12.7469 32.6887 17.054 32.6887 22.4726C32.6887 23.3886 32.5656 24.2729 32.3349 25.11H45.1745C45.1868 25.0197 45.1932 24.9277 45.1932 24.8345V20.1106L43.5259 17.8876Z" fill="#CD280C"></path>
                                                                        <path fill-rule="evenodd" clip-rule="evenodd" d="M57.6849 29.0808C57.6849 27.9012 56.7197 26.936 55.5401 26.936H34.0925C32.9129 26.936 31.9478 27.9012 31.9478 29.0808V43.9333C31.9478 45.1129 32.9129 46.078 34.0925 46.078H55.5401C56.7197 46.078 57.6849 45.1129 57.6849 43.9333V29.0808ZM54.4675 42.0566C54.4675 42.4856 54.0922 42.8609 53.6633 42.8609H35.969C35.54 42.8609 35.1647 42.4856 35.1647 42.0566V30.9575C35.1647 30.5286 35.54 30.1532 35.969 30.1532H53.6633C54.0922 30.1532 54.4675 30.5286 54.4675 30.9575V42.0566ZM41.0629 49.456C39.8833 49.456 38.9182 50.4212 38.9182 51.6008V51.8689C38.9182 52.2978 39.2935 52.6732 39.7225 52.6732H49.9101C50.339 52.6732 50.7143 52.2978 50.7143 51.8689V51.6008C50.7143 50.4212 49.7492 49.456 48.5696 49.456H41.0629ZM40.5268 40.1799H38.3284C38.0067 40.1799 37.7922 39.9118 37.7922 39.6437V33.3703C37.7922 33.0486 38.0067 32.8341 38.3284 32.8341H40.5268C40.7949 32.8341 41.063 33.0486 41.063 33.3703V39.6437C41.063 39.9654 40.7949 40.1799 40.5268 40.1799ZM51.3043 40.1799H44.173C43.8513 40.1799 43.6368 39.9654 43.6368 39.6437V33.3703C43.6368 33.0486 43.8513 32.8341 44.173 32.8341H51.3043C51.5724 32.8341 51.8405 33.0486 51.8405 33.3703V39.6437C51.8405 39.9654 51.5724 40.1799 51.3043 40.1799Z" fill="#706E6B"></path>
                                                                        <mask id="mask0" mask-type="alpha" maskUnits="userSpaceOnUse" x="31" y="26" width="27" height="27">
                                                                            <path fill-rule="evenodd" clip-rule="evenodd" d="M57.6849 29.0808C57.6849 27.9012 56.7197 26.936 55.5401 26.936H34.0925C32.9129 26.936 31.9478 27.9012 31.9478 29.0808V43.9333C31.9478 45.1129 32.9129 46.078 34.0925 46.078H55.5401C56.7197 46.078 57.6849 45.1129 57.6849 43.9333V29.0808ZM54.4675 42.0566C54.4675 42.4856 54.0922 42.8609 53.6633 42.8609H35.969C35.54 42.8609 35.1647 42.4856 35.1647 42.0566V30.9575C35.1647 30.5286 35.54 30.1532 35.969 30.1532H53.6633C54.0922 30.1532 54.4675 30.5286 54.4675 30.9575V42.0566ZM41.0629 49.456C39.8833 49.456 38.9182 50.4212 38.9182 51.6008V51.8689C38.9182 52.2978 39.2935 52.6732 39.7225 52.6732H49.9101C50.339 52.6732 50.7143 52.2978 50.7143 51.8689V51.6008C50.7143 50.4212 49.7492 49.456 48.5696 49.456H41.0629ZM40.5268 40.1799H38.3284C38.0067 40.1799 37.7922 39.9118 37.7922 39.6437V33.3703C37.7922 33.0486 38.0067 32.8341 38.3284 32.8341H40.5268C40.7949 32.8341 41.063 33.0486 41.063 33.3703V39.6437C41.063 39.9654 40.7949 40.1799 40.5268 40.1799ZM51.3043 40.1799H44.173C43.8513 40.1799 43.6368 39.9654 43.6368 39.6437V33.3703C43.6368 33.0486 43.8513 32.8341 44.173 32.8341H51.3043C51.5724 32.8341 51.8405 33.0486 51.8405 33.3703V39.6437C51.8405 39.9654 51.5724 40.1799 51.3043 40.1799Z" fill="white"></path>
                                                                        </mask>
                                                                        <g mask="url(#mask0)">
                                                                            <rect x="29.8032" y="24.7913" width="30.0266" height="30.0266" fill="black"></rect>
                                                                        </g>
                                                                    </svg>