<svg viewBox="0 0 36 35" version="1.1" xmlns="http://www.w3.org/2000/svg" xmlns:xlink="http://www.w3.org/1999/xlink">
                                                                        <g id="Artboard" stroke="none" stroke-width="1" fill="none" fill-rule="evenodd">
                                                                            <path d="M18,23 C15.2,23 13,20.8 13,18 C13,15.2 15.2,13 18,13 C20.8,13 23,15.2 23,18 C23,20.8 20.8,23 18,23 Z" id="Path" fill="#CD280C" fill-rule="nonzero"></path>
                                                                            <path d="M32.8,14.7 L30,13.8 L29.4,12.3 L30.8,9.7 C31.1,9.1 31,8.3 30.5,7.8 L28.1,5.4 C27.6,4.9 26.8,4.8 26.2,5.1 L23.6,6.5 L22.1,5.9 L21.2,3.1 C21,2.5 20.4,2 19.7,2 L16.3,2 C15.6,2 15,2.5 14.9,3.2 L14,6 C13.4,6.1 12.9,6.3 12.4,6.6 L9.8,5.2 C9.2,4.9 8.4,5 7.9,5.5 L5.5,7.9 C5,8.4 4.9,9.2 5.2,9.8 L6.5,12.3 C6.3,12.8 6.1,13.4 5.9,13.9 L3.1,14.8 C2.5,15 2,15.6 2,16.3 L2,19.7 C2,20.4 2.5,21 3.2,21.2 L6,22.1 L6.6,23.6 L5.2,26.2 C4.9,26.8 5,27.6 5.5,28.1 L7.9,30.5 C8.4,31 9.2,31.1 9.8,30.8 L12.4,29.4 L13.9,30 L14.8,32.9 C15,33.5 15.6,34 16.3,34 L19.7,34 C20.4,34 21,33.5 21.2,32.9 L22.1,30 L23.6,29.4 L26.2,30.8 C26.8,31.1 27.6,31 28.1,30.5 L30.5,28.1 C31,27.6 31.1,26.8 30.8,26.2 L29.4,23.6 L30,22.1 L32.9,21.2 C33.5,21 34,20.4 34,19.7 L34,16.3" id="Path" fill="#CD280C" fill-rule="nonzero"></path>
                                                                            <path d="M32,19.4 L28.4,20.5 L28.3,21 C28,21.7 27.7,22.4 27.4,23.1 L27.1,23.6 L28.9,26.9 L26.9,28.9 L23.6,27.1 L23.1,27.4 C22.4,27.8 21.7,28.1 21,28.3 L20.5,28.4 L19.4,32 L16.6,32 L15.5,28.4 L15,28.3 C14.3,28 13.6,27.7 12.9,27.4 L12.4,27.1 L9.1,28.9 L7.1,26.9 L8.9,23.6 L8.6,23.1 C8.2,22.4 7.9,21.7 7.7,21 L7.6,20.5 L4,19.4 L4,16.6 L7.4,15.6 L7.6,15.1 C7.8,14.3 8.1,13.6 8.5,12.9 L8.8,12.4 L7.1,9.1 L9.1,7.1 L12.3,8.9 L12.8,8.6 C13.5,8.2 14.2,7.9 15,7.7 L15.5,7.5 L16.6,4 L19.4,4 L20.5,7.5 L21,7.7 C21.7,7.9 22.4,8.2 23.1,8.6 L23.6,8.9 L26.9,7.1 L28.9,9.1 L27.1,12.4 L27.4,12.9 C27.8,13.6 28.1,14.3 28.3,15 L28.4,15.5 L32,16.6" id="Path" fill="#CD280C" fill-rule="nonzero"></path>
                                                                            <path d="M18,11 C14.1,11 11,14.1 11,18 C11,21.9 14.1,25 18,25 C21.9,25 25,21.9 25,18 C25,14.1 21.9,11 18,11 Z" id="Path" fill="#FFFFFF" fill-rule="nonzero"></path>
                                                                        </g>
                                                                    </svg>