<svg viewBox="0 0 36 36" xmlns="http://www.w3.org/2000/svg" aria-hidden="true">
                                                                    <g>
                                                                        <path d="M16,11.45c-2.51,0-4.55,2.04-4.55,4.55s2.04,4.55,4.55,4.55,4.55-2.04,4.55-4.55-2.04-4.55-4.55-4.55Zm0,7.09c-1.4,0-2.55-1.14-2.55-2.55s1.14-2.55,2.55-2.55,2.55,1.14,2.55,2.55-1.14,2.55-2.55,2.55Z">
                                                                        </path>
                                                                        <path d="M14.64,23.14c-3.36-.64-5.92-3.6-5.92-7.14,0-4.01,3.26-7.27,7.27-7.27s7.27,3.26,7.27,7.27c0,.57-.07,1.12-.2,1.65,.67-.31,1.38-.52,2.13-.6,0-.03,.01-.06,.01-.1,.08,.02,.15,.05,.23,.05h3.55c.55,0,1-.45,1-1s-.45-1-1-1h-3.55c-.08,0-.15,.03-.23,.05-.45-4.35-3.92-7.82-8.27-8.27,.02-.08,.05-.15,.05-.23V3c0-.55-.45-1-1-1s-1,.45-1,1v3.55c0,.08,.03,.15,.05,.23-4.35,.45-7.82,3.92-8.27,8.27-.08-.02-.15-.05-.23-.05H3c-.55,0-1,.45-1,1s.45,1,1,1h3.55c.08,0,.15-.03,.23-.05,.4,3.86,3.17,7.02,6.83,8,.27-.65,.62-1.26,1.04-1.81Z">
                                                                        </path>
                                                                    </g>
                                                                    <path d="M29,34h-8c-3.31,0-6-2.69-6-6s2.93-6.25,6.41-5.98c.78-1.81,2.55-3.02,4.59-3.02,2.76,0,5,2.24,5,5,0,.14,0,.27-.02,.41,1.8,.78,3.02,2.58,3.02,4.59,0,2.76-2.24,5-5,5Zm-8-10c-2.21,0-4,1.79-4,4s1.79,4,4,4h8c1.65,0,3-1.35,3-3,0-1.41-1-2.64-2.38-2.93l-1.05-.22,.29-1.03c.09-.32,.13-.58,.13-.82,0-1.65-1.35-3-3-3-1.39,0-2.62,.99-2.92,2.35l-.22,.98-.98-.22c-.32-.07-.6-.11-.88-.11Z">
                                                                    </path>
                                                                </svg>