<svg version="1.1" id="Layer_1" xmlns="http://www.w3.org/2000/svg" xmlns:xlink="http://www.w3.org/1999/xlink" x="0px" y="0px" viewBox="0 0 16 16" style="enable-background:new 0 0 16 16;" xml:space="preserve">
                                                                        <title>Datastore 16x</title>
                                                                        <g>
                                                                            <path fill="#37708D" d="M7,0C3.1,0,0,0.9,0,2v10c0,1.1,3.1,2,7,2s7-0.9,7-2V2C14,0.9,10.9,0,7,0">
                                                                            </path>
                                                                            <path fill="#FFFFFF" d="M7,1C3.7,1,1,1.7,1,2.5v9C1,12.3,3.7,13,7,13c3.3,0,6-0.7,6-1.5v-9C13,1.7,10.3,1,7,1">
                                                                            </path>
                                                                            <path fill="#CBDAE0" d="M13,2.6c0,0.7-2.2,1.3-5,1.4v9c2.8-0.1,5-0.7,5-1.5V2.6">
                                                                            </path>
                                                                            <polyline fill="#558097" points="13,5.5 13,5.5 13,5.5 13,6.5 13,6.5 13,5.5  ">
                                                                            </polyline>
                                                                            <path fill="#AFC0CA" d="M1,5.5v1C1,7.3,3.7,8,7,8c0.3,0,0.7,0,1,0V7C7.7,7,7.3,7,7,7C3.7,7,1,6.3,1,5.5">
                                                                            </path>
                                                                            <path fill="#97B0BC" d="M13,5.5C12.9,6.3,10.8,6.9,8,7v1c2.8-0.1,5-0.7,5-1.5V5.5">
                                                                            </path>
                                                                            <polyline fill="#558097" points="13,2.5 13,2.5 13,2.5 13,2.6 13,2.6 13,3.5 13,3.5 13,2.5    ">
                                                                            </polyline>
                                                                            <path fill="#AFC0CA" d="M1,2.5L1,2.5v1C1,4.3,3.7,5,7,5c0.3,0,0.7,0,1,0V4c2.8-0.1,5-0.7,5-1.4v0C12.9,3.3,10.3,4,7,4
        C3.7,4,1,3.3,1,2.5"></path>
                                                                            <path fill="#97B0BC" d="M13,2.6L13,2.6c0,0.7-2.2,1.3-5,1.4v1c2.8-0.1,5-0.7,5-1.5V2.6">
                                                                            </path>
                                                                            <polyline fill="#558097" points="13,8.5 13,8.5 13,8.5 13,9.5 13,9.5 13,8.5  ">
                                                                            </polyline>
                                                                            <path fill="#AFC0CA" d="M1,8.5v1C1,10.3,3.7,11,7,11c0.3,0,0.7,0,1,0v-1c-0.3,0-0.7,0-1,0C3.7,10,1,9.3,1,8.5">
                                                                            </path>
                                                                            <path fill="#97B0BC" d="M13,8.5c-0.1,0.7-2.2,1.3-5,1.4v1c2.8-0.1,5-0.7,5-1.5V8.5">
                                                                            </path>
                                                                        </g>
                                                                    </svg>