<svg viewBox="0 0 36 36" xmlns="http://www.w3.org/2000/svg" aria-hidden="true">
                                                                    <g>
                                                                        <path d="M11.45,16c0,1.84,1.11,3.43,2.69,4.14,.27-.08,.56-.14,.86-.14h1v-1.45c-1.4,0-2.55-1.14-2.55-2.55s1.14-2.55,2.55-2.55c.14,0,.28,.02,.42,.04,.4-.69,1.07-1.21,1.87-1.4-.67-.4-1.45-.64-2.29-.64-2.51,0-4.55,2.04-4.55,4.55Z">
                                                                        </path>
                                                                        <path d="M12,23c0-.3,.06-.58,.14-.85-2.04-1.29-3.41-3.56-3.41-6.15,0-4.01,3.26-7.27,7.27-7.27,2.53,0,4.76,1.3,6.07,3.27h2.3c-1.37-2.84-4.14-4.89-7.41-5.22,.02-.08,.05-.15,.05-.23V3c0-.55-.45-1-1-1s-1,.45-1,1v3.55c0,.08,.03,.15,.05,.23-4.35,.45-7.82,3.92-8.27,8.27-.08-.02-.15-.05-.23-.05H3c-.55,0-1,.45-1,1s.45,1,1,1h3.55c.08,0,.15-.03,.23-.05,.34,3.27,2.38,6.04,5.22,7.41v-1.36Z">
                                                                        </path>
                                                                    </g>
                                                                    <path d="M25,34H15c-.55,0-1-.45-1-1v-10c0-.55,.45-1,1-1h10c.55,0,1,.45,1,1v10c0,.55-.45,1-1,1Zm-9-2h8v-8h-8v8Z">
                                                                    </path>
                                                                    <path d="M33,30h-7.79v-2h6.79v-8h-8v3.1h-2v-4.1c0-.55,.45-1,1-1h10c.55,0,1,.45,1,1v10c0,.55-.45,1-1,1Z">
                                                                    </path>
                                                                    <path d="M20,22.91h-2v-7.91c0-.55,.45-1,1-1h10c.55,0,1,.45,1,1v3.77h-2v-2.77h-8v6.91Z">
                                                                    </path>
                                                                </svg>