<svg viewBox="0 0 36 36" xmlns="http://www.w3.org/2000/svg" aria-hidden="true">
                                                                    <path d="M13.9,18.5H23c0-0.2,0-0.3,0-0.5c0-0.5,0.1-1,0.2-1.5h-9.3c0-0.1,0-0.2-0.1-0.3l9.9-6.2c-0.3-0.6-0.5-1.3-0.7-1.9l-10,6.2 c-1.8-2.8-5.5-3.6-8.3-1.9S1.2,17.9,3,20.7s5.5,3.6,8.3,1.9c0.7-0.5,1.4-1.1,1.9-1.9L23.3,27c0.2-0.6,0.5-1.3,0.9-1.8l-10.4-6.4 C13.9,18.7,13.9,18.6,13.9,18.5z M8,21.5c-2.2,0-4-1.8-4-4s1.8-4,4-4s4,1.8,4,4S10.2,21.5,8,21.5z">
                                                                    </path>
                                                                    <path d="M29.5,11.5c2.5,0,4.5-2,4.5-4.5s-2-4.5-4.5-4.5S25,4.5,25,7S27,11.5,29.5,11.5z M29.5,4.5C30.9,4.5,32,5.6,32,7 s-1.1,2.5-2.5,2.5S27,8.4,27,7S28.1,4.5,29.5,4.5z">
                                                                    </path>
                                                                    <path d="M29.5,13.5c-2.5,0-4.5,2-4.5,4.5s2,4.5,4.5,4.5s4.5-2,4.5-4.5S32,13.5,29.5,13.5z M29.5,20.5c-1.4,0-2.5-1.1-2.5-2.5 s1.1-2.5,2.5-2.5S32,16.6,32,18S30.9,20.5,29.5,20.5z">
                                                                    </path>
                                                                    <path d="M29.5,24.5c-2.5,0-4.5,2-4.5,4.5s2,4.5,4.5,4.5s4.5-2,4.5-4.5S32,24.5,29.5,24.5z M29.5,31.5c-1.4,0-2.5-1.1-2.5-2.5 s1.1-2.5,2.5-2.5S32,27.6,32,29S30.9,31.5,29.5,31.5z">
                                                                    </path>
                                                                </svg>