<svg version="1.1" id="Layer_1" xmlns="http://www.w3.org/2000/svg" xmlns:xlink="http://www.w3.org/1999/xlink" x="0px" y="0px" viewBox="0 0 16 16" style="enable-background:new 0 0 16 16;" xml:space="preserve">
                                                                        <title>Network 16x</title>
                                                                        <g>
                                                                            <rect x="5" y="11" fill="#9CB7C5" width="2" height="5"></rect>
                                                                            <rect x="5" y="11" fill="#52809B" width="2" height="2"></rect>
                                                                            <rect y="14" fill="#9CB7C5" width="12" height="2"></rect>
                                                                            <rect y="15" fill="#38718E" width="12" height="1"></rect>
                                                                            <circle fill="#FFFFFF" cx="6" cy="6" r="5.7"></circle>
                                                                            <path fill="#CCDBE1" d="M6,7C4.2,7,2.5,6.2,1.4,4.8C1.3,5.2,1.2,5.6,1.2,6c0,2.7,2.1,4.8,4.8,4.8c2.7,0,4.8-2.1,4.8-4.8
        c0-0.4-0.1-0.8-0.2-1.2C10.1,5.9,8.2,7,6,7z"></path>
                                                                            <path fill="#6C96AC" d="M3.4,6C2.3,6,1.3,5.8,0.3,5.4L0.5,5c5.2,2.2,9.6-2.4,9.7-2.4l0.3,0.3C8.5,4.8,6,5.9,3.4,6z">
                                                                            </path>
                                                                            <path fill="#6C96AC" d="M3.2,11.1v-0.4c3.7-0.1,7-2.5,8.1-6.1l0.4,0.1C10.4,8.4,7.1,11,3.2,11.1z">
                                                                            </path>
                                                                            <path fill="#6C96AC" d="M9.9,9.8C5.7,10.1,2,7,1.5,2.8l0.4-0.1c1.3,7.5,8.7,6.7,8.7,6.7v0.4C10.4,9.8,10.1,9.8,9.9,9.8z">
                                                                            </path>
                                                                            <path fill="#6C96AC" d="M9.5,10.8l-0.4-0.1c1.6-7.5-5.5-9.5-5.5-9.5l0.1-0.4C3.8,0.8,11.2,2.9,9.5,10.8z">
                                                                            </path>
                                                                            <path fill="#6C96AC" d="M7,3.7C7.2,3.2,7.7,2.9,8.3,3C8.8,3.2,9.1,3.7,9,4.3C8.8,4.8,8.3,5.1,7.7,5C7.2,4.8,6.9,4.3,7,3.7z">
                                                                            </path>
                                                                            <path fill="#6C96AC" d="M6,9.7C6.2,9.2,6.7,8.9,7.3,9C7.8,9.2,8.1,9.7,8,10.3c-0.1,0.5-0.7,0.8-1.2,0.7C6.2,10.8,5.9,10.3,6,9.7z">
                                                                            </path>
                                                                            <path fill="#265E80" d="M6,0.6c3,0,5.4,2.4,5.4,5.4S9,11.4,6,11.4S0.6,9,0.6,6C0.6,3,3,0.6,6,0.6 M6,0C2.7,0,0,2.7,0,6s2.7,6,6,6
        s6-2.7,6-6S9.3,0,6,0z"></path>
                                                                        </g>
                                                                    </svg>