<svg version="1.1" id="Layer_1" xmlns="http://www.w3.org/2000/svg" xmlns:xlink="http://www.w3.org/1999/xlink" x="0px" y="0px" viewBox="0 0 47.2 36.2" style="enable-background:new 0 0 47.2 36.2;" xml:space="preserve">
                                                                                    <g>
                                                                                        <path style="fill-rule:evenodd;clip-rule:evenodd;fill:#0078D7;" d="M39.3,15.9c0.3-0.9,0.4-1.8,0.4-2.7c0-5.9-4.7-10.7-10.4-10.7c-4.3,0-8,2.7-9.6,6.6c-1.3-1.7-3.3-2.6-5.6-2.6
        c-4,0-7.3,3.4-7.3,7.6c0,0.7,0.1,1.4,0.3,2.1c-3.3,1.2-5.6,4.1-5.6,7.9c0,4.9,3.9,8.5,8.7,8.5h26.7c4.8,0,8.6-3.6,8.6-8.5
        C45.4,20.1,42.9,17.1,39.3,15.9z M33.5,19.6c-0.8,3.1-3.5,5.3-6.7,5.3c-0.5,0-1.1-0.1-1.7-0.2c-0.5-0.2-1.1-0.4-1.7-0.6l-4.8,4.8
        c-0.4,0.4-0.9,0.6-1.4,0.6s-1.1-0.2-1.4-0.6c-0.4-0.4-0.6-0.9-0.6-1.4s0.2-1.1,0.6-1.4l4.8-4.8c-0.8-1.5-1.1-3.3-0.6-4.9
        c0.8-3.1,3.5-5.3,6.7-5.3c0.5,0,1.1,0.1,1.7,0.2c1.8,0.4,3.3,1.6,4.2,3.2C33.7,16,34,17.9,33.5,19.6z"></path>
                                                                                        <path style="fill-rule:evenodd;clip-rule:evenodd;fill:#0078D7;" d="M27.9,13.8c-0.4-0.1-0.7-0.1-1.1-0.1c-1.9,0-3.7,1.3-4.1,3.3c-0.3,1.1-0.1,2.5,0.6,3.4
        c0.3,0.4,0.7,0.8,1.1,1.1c0.4,0.3,0.9,0.5,1.4,0.6c0.4,0.1,0.7,0.1,1.1,0.1c1.9,0,3.7-1.3,4.1-3.3c0.3-1.1,0.1-2.3-0.5-3.3
        C29.9,14.8,28.9,14.1,27.9,13.8z"></path>
                                                                                    </g>
                                                                                </svg>