<svg viewBox="0 0 36 36" xmlns="http://www.w3.org/2000/svg" aria-hidden="true">
                                                                    <path class="cls-1" d="M11.45,16c0,2.16,1.52,3.97,3.55,4.43v-2.09c-.91-.39-1.55-1.29-1.55-2.34,0-1.4,1.14-2.55,2.55-2.55.28,0,.55.06.8.14.53-.47,1.15-.89,1.87-1.25-.75-.55-1.67-.89-2.68-.89-2.51,0-4.55,2.04-4.55,4.55Z">
                                                                    </path>
                                                                    <path class="cls-1" d="M15,23.2c-3.54-.49-6.27-3.53-6.27-7.2,0-4.01,3.26-7.27,7.27-7.27,2.24,0,4.25,1.02,5.58,2.62.7-.16,1.44-.27,2.22-.34-1.49-2.32-3.97-3.94-6.85-4.23.02-.08.05-.15.05-.23v-3.55c0-.55-.45-1-1-1s-1,.45-1,1v3.55c0,.08.03.15.05.23-4.35.45-7.82,3.92-8.27,8.27-.08-.02-.15-.05-.23-.05h-3.55c-.55,0-1,.45-1,1s.45,1,1,1h3.55c.08,0,.15-.03.23-.05.45,4.34,3.89,7.8,8.22,8.26v-2.02Z">
                                                                    </path>
                                                                    <path class="cls-1" d="M25.49,14.93c-4.84,0-8.5,1.88-8.5,4.38v12.31c0,2.5,3.66,4.38,8.5,4.38s8.5-1.92,8.5-4.38v-12.31c0-2.5-3.66-4.38-8.5-4.38ZM31.99,22.6c-.83,1-3.36,2-6.53,2-1.32,0-2.63-.17-3.9-.52v1.46c1.29.32,2.61.48,3.93.47,2.27.08,4.52-.45,6.5-1.56v3.12c-.83,1-3.36,2-6.53,2-1.32.02-2.63-.15-3.9-.49v1.46c1.29.32,2.61.48,3.93.47,2.27.07,4.52-.48,6.5-1.6v2.29c0,.95-2.6,2.38-6.53,2.38s-6.47-1.43-6.47-2.38v-12.39c0-.95,2.6-2.38,6.53-2.38s6.47,1.43,6.47,2.38v3.29Z">
                                                                    </path>
                                                                </svg>