<svg viewBox="0 0 36 36" xmlns="http://www.w3.org/2000/svg" aria-hidden="true">
                                                                    <path d="M27,4.18a1,1,0,0,0-1.07,1.69l.07,0,6,3.47V26.62l-6,3.47a1,1,0,1,0,1,1.73h0l7-4.05V8.23Z">
                                                                    </path>
                                                                    <path d="M9.68,29.9,4,26.62V9.38L9.68,6.1a1,1,0,1,0-.93-1.77l-.07,0L2,8.23V27.77l6.68,3.86a1,1,0,0,0,1.37-.36h0A1,1,0,0,0,9.68,29.9Z">
                                                                    </path>
                                                                    <path d="M24,15.39V9.94L18.5,6.79,13,9.94v4.87L8,17.68V24l5.5,3.15L18,24.57l4.5,2.58L28,24V17.68ZM15,11.1l3.5-2,3.5,2v3.71L18.25,17,15,15.1ZM10,22.84v-4l3.5-2,3.5,2v4l-3.5,2Zm16,0-3.5,2-3.5-2V19.13L22.75,17,26,18.84Z">
                                                                    </path>
                                                                </svg>