<svg id="Layer_1" xmlns="http://www.w3.org/2000/svg" viewBox="0 0 36 36">
                                                                        <defs>
                                                                            <style>
                                                                                .cls-1 {
                                                                                    stroke-width: 0px;
                                                                                }
                                                                            </style>
                                                                        </defs>
                                                                        <path class="cls-1" d="m14,29.2v-.06l-4,2.44-6-3.66v-7.42l5.88-3.59,4.12,2.51v-2.23l.21-.13-3.21-1.96v-7.28l6-3.66,6,3.66v3.87l.96-.58,1.04-.64v-3.78L17,1.83l-8,4.88v8.4l-7,4.27v9.67l8,4.88,4.95-3.02-.95-.58v-1.12Zm18.56-11.77l-.08-.12-.06.04-7.42-4.52-7.42,4.52-.06-.04-.08.12-1.44.88v10.89l9,5.49,9-5.49v-10.89l-1.44-.88Zm-8.56,14.3l-6-3.66v-8.13l6,3.66v8.13Zm-4.5-13.22l5.5-3.35,5.5,3.35-5.5,3.35-5.5-3.35Zm12.5,9.56l-6,3.66v-8.13l6-3.66v8.13Z">
                                                                        </path>
                                                                    </svg>