<svg viewBox="0 0 36 36" xmlns="http://www.w3.org/2000/svg" aria-hidden="true">
                                                                    <path d="M31,10H5a2,2,0,0,0-2,2V30a2,2,0,0,0,2,2H31a2,2,0,0,0,2-2V12A2,2,0,0,0,31,10ZM5,30V12H31V30Z">
                                                                    </path>
                                                                    <path d="M5.61,8H30.34a1,1,0,1,0,0-2H5.61a1,1,0,1,0,0,2Z">
                                                                    </path>
                                                                    <path d="M8,4H27.9a1,1,0,0,0,0-2H8A1,1,0,0,0,8,4Z">
                                                                    </path>
                                                                    <path d="M8.8,14.74a.8.8,0,0,0-.8.8v11a.8.8,0,0,0,1.6,0v-11A.8.8,0,0,0,8.8,14.74Z">
                                                                    </path>
                                                                    <path d="M14.72,14.74a.8.8,0,0,0-.8.8v11a.8.8,0,1,0,1.6,0v-11A.8.8,0,0,0,14.72,14.74Z">
                                                                    </path>
                                                                    <path d="M20.8,14.74a.8.8,0,0,0-.8.8v11a.8.8,0,0,0,1.6,0v-11A.8.8,0,0,0,20.8,14.74Z">
                                                                    </path>
                                                                    <path d="M26.8,14.74a.8.8,0,0,0-.8.8v11a.8.8,0,0,0,1.6,0v-11A.8.8,0,0,0,26.8,14.74Z">
                                                                    </path>
                                                                </svg>