<svg viewBox="0 0 36 36" xmlns="http://www.w3.org/2000/svg" aria-hidden="true">
                                                                                <polygon points="28 22 30 22 30 30 22 30 22 28 20 28 20 32 32 32 32 20 28 20 28 22">
                                                                                </polygon>
                                                                                <polygon points="14 30 6 30 6 22 8 22 8 20 4 20 4 32 16 32 16 28 14 28 14 30">
                                                                                </polygon>
                                                                                <polygon points="8 14 6 14 6 6 14 6 14 8 16 8 16 4 4 4 4 16 8 16 8 14">
                                                                                </polygon>
                                                                                <polygon points="20 4 20 8 22 8 22 6 30 6 30 14 28 14 28 16 32 16 32 4 20 4">
                                                                                </polygon>
                                                                                <rect x="11" y="11" width="6" height="6"></rect>
                                                                                <rect x="19" y="11" width="6" height="6"></rect>
                                                                                <rect x="11" y="19" width="6" height="6"></rect>
                                                                                <rect x="19" y="19" width="6" height="6"></rect>
                                                                            </svg>